<?plantuml 1.2026.2beta2?><svg xmlns="http://www.w3.org/2000/svg" xmlns:xlink="http://www.w3.org/1999/xlink" contentStyleType="text/css" data-diagram-type="DESCRIPTION" height="993px" preserveAspectRatio="none" style="width:444px;height:993px;background:#FFFFFF;" version="1.1" viewBox="0 0 444 993" width="444px" zoomAndPan="magnify"><title>Mental Health Monitoring System - Architecture</title><defs/><g><g class="title" data-source-line="1"><text fill="#000000" font-family="sans-serif" font-size="14" font-weight="bold" lengthAdjust="spacing" textLength="379.6133" x="25.2648" y="22.9951">Mental Health Monitoring System - Architecture</text></g><!--entity SMP--><g class="entity" data-qualified-name="SMP" data-source-line="7" id="ent0002"><ellipse cx="221.429" cy="51.2969" fill="#F1F1F1" rx="8" ry="8" style="stroke:#181818;stroke-width:0.5;"/><path d="M221.429,59.2969 L221.429,86.2969 M208.429,67.2969 L234.429,67.2969 M221.429,86.2969 L208.429,101.2969 M221.429,86.2969 L234.429,101.2969" fill="none" style="stroke:#181818;stroke-width:0.5;"/><text fill="#000000" font-family="sans-serif" font-size="14" lengthAdjust="spacing" textLength="159.0381" x="141.91" y="115.792">Social Media Platforms</text></g><!--entity INPUT--><g class="entity" data-qualified-name="INPUT" data-source-line="9" id="ent0003"><rect fill="#F1F1F1" height="52.5938" rx="2.5" ry="2.5" style="stroke:#181818;stroke-width:0.5;" width="168.1348" x="137.36" y="179.0869"/><text fill="#000000" font-family="sans-serif" font-size="14" lengthAdjust="spacing" textLength="148.1348" x="147.36" y="202.082">Social Media Content</text><text fill="#000000" font-family="sans-serif" font-size="14" lengthAdjust="spacing" textLength="108.6162" x="147.36" y="218.3789">(Text + Emojis)</text></g><!--entity PRE--><g class="entity" data-qualified-name="PRE" data-source-line="10" id="ent0004"><rect fill="#F1F1F1" height="52.5938" rx="2.5" ry="2.5" style="stroke:#181818;stroke-width:0.5;" width="168.292" x="137.28" y="291.6869"/><text fill="#000000" font-family="sans-serif" font-size="14" lengthAdjust="spacing" textLength="148.292" x="147.28" y="314.682">Text Normalization &amp;</text><text fill="#000000" font-family="sans-serif" font-size="14" lengthAdjust="spacing" textLength="135.3994" x="147.28" y="330.9789">Emoji Demojization</text></g><!--entity EDATA--><g class="entity" data-qualified-name="EDATA" data-source-line="12" id="ent0005"><rect fill="#F1F1F1" height="52.5938" rx="2.5" ry="2.5" style="stroke:#181818;stroke-width:0.5;" width="196.8594" x="7" y="404.2769"/><text fill="#000000" font-family="sans-serif" font-size="14" lengthAdjust="spacing" textLength="176.8594" x="17" y="427.272">Labeled Emotion Dataset</text><text fill="#000000" font-family="sans-serif" font-size="14" lengthAdjust="spacing" textLength="106.1006" x="17" y="443.5689">(Training Data)</text></g><!--entity EMODEL--><g class="entity" data-qualified-name="EMODEL" data-source-line="13" id="ent0006"><rect fill="#F1F1F1" height="52.5938" rx="2.5" ry="2.5" style="stroke:#181818;stroke-width:0.5;" width="124.3506" x="55.25" y="516.8669"/><text fill="#000000" font-family="sans-serif" font-size="14" lengthAdjust="spacing" textLength="104.3506" x="65.25" y="539.862">Emotion Model</text><text fill="#000000" font-family="sans-serif" font-size="14" lengthAdjust="spacing" textLength="57.2988" x="65.25" y="556.1589">Training</text></g><!--entity EINFER--><g class="entity" data-qualified-name="EINFER" data-source-line="14" id="ent0007"><rect fill="#F1F1F1" height="52.5938" rx="2.5" ry="2.5" style="stroke:#181818;stroke-width:0.5;" width="151.1543" x="64.85" y="629.4669"/><text fill="#000000" font-family="sans-serif" font-size="14" lengthAdjust="spacing" textLength="128.4131" x="74.85" y="652.462">Emotion Inference</text><text fill="#000000" font-family="sans-serif" font-size="14" lengthAdjust="spacing" textLength="131.1543" x="74.85" y="668.7589">(Large-Scale Data)</text></g><!--entity SDATA--><g class="entity" data-qualified-name="SDATA" data-source-line="16" id="ent0008"><rect fill="#F1F1F1" height="52.5938" rx="2.5" ry="2.5" style="stroke:#181818;stroke-width:0.5;" width="199.4229" x="238.72" y="404.2769"/><text fill="#000000" font-family="sans-serif" font-size="14" lengthAdjust="spacing" textLength="179.4229" x="248.72" y="427.272">Labeled Sarcasm Dataset</text><text fill="#000000" font-family="sans-serif" font-size="14" lengthAdjust="spacing" textLength="106.1006" x="248.72" y="443.5689">(Training Data)</text></g><!--entity SMODEL--><g class="entity" data-qualified-name="SMODEL" data-source-line="17" id="ent0009"><rect fill="#F1F1F1" height="52.5938" rx="2.5" ry="2.5" style="stroke:#181818;stroke-width:0.5;" width="126.9141" x="271.97" y="516.8669"/><text fill="#000000" font-family="sans-serif" font-size="14" lengthAdjust="spacing" textLength="106.9141" x="281.97" y="539.862">Sarcasm Model</text><text fill="#000000" font-family="sans-serif" font-size="14" lengthAdjust="spacing" textLength="57.2988" x="281.97" y="556.1589">Training</text></g><!--entity SINFER--><g class="entity" data-qualified-name="SINFER" data-source-line="18" id="ent0010"><rect fill="#F1F1F1" height="36.2969" rx="2.5" ry="2.5" style="stroke:#181818;stroke-width:0.5;" width="150.9766" x="256.94" y="637.6169"/><text fill="#000000" font-family="sans-serif" font-size="14" lengthAdjust="spacing" textLength="130.9766" x="266.94" y="660.612">Sarcasm Inference</text></g><!--entity FUSION--><g class="entity" data-qualified-name="FUSION" data-source-line="20" id="ent0011"><rect fill="#F1F1F1" height="36.2969" rx="2.5" ry="2.5" style="stroke:#181818;stroke-width:0.5;" width="179.5781" x="143.64" y="742.0569"/><text fill="#000000" font-family="sans-serif" font-size="14" lengthAdjust="spacing" textLength="159.5781" x="153.64" y="765.052">Fusion Inference Layer</text></g><!--entity OUTPUT--><g class="entity" data-qualified-name="OUTPUT" data-source-line="21" id="ent0012"><rect fill="#F1F1F1" height="52.5938" rx="2.5" ry="2.5" style="stroke:#181818;stroke-width:0.5;" width="165.4004" x="150.73" y="838.3569"/><text fill="#000000" font-family="sans-serif" font-size="14" lengthAdjust="spacing" textLength="104.1182" x="160.73" y="861.352">Context-Aware</text><text fill="#000000" font-family="sans-serif" font-size="14" lengthAdjust="spacing" textLength="145.4004" x="160.73" y="877.6489">Mental Health Signal</text></g><!--entity FLASK--><g class="entity" data-qualified-name="FLASK" data-source-line="23" id="ent0013"><rect fill="#F1F1F1" height="36.2969" rx="2.5" ry="2.5" style="stroke:#181818;stroke-width:0.5;" width="182.0801" x="142.39" y="950.9469"/><text fill="#000000" font-family="sans-serif" font-size="14" lengthAdjust="spacing" textLength="162.0801" x="152.39" y="973.942">Flask Application Layer</text></g><!--link SMP to INPUT--><g class="link" data-entity-1="ent0002" data-entity-2="ent0003" data-link-type="dependency" data-source-line="25" id="lnk14"><path d="M221.43,119.3469 C221.43,138.6169 221.43,155.6169 221.43,172.8369" fill="none" id="SMP-to-INPUT" style="stroke:#181818;stroke-width:1;"/><polygon fill="#181818" points="221.43,178.8369,225.43,169.8369,221.43,173.8369,217.43,169.8369,221.43,178.8369" style="stroke:#181818;stroke-width:1;"/></g><!--link INPUT to PRE--><g class="link" data-entity-1="ent0003" data-entity-2="ent0004" data-link-type="dependency" data-source-line="26" id="lnk15"><path d="M221.43,232.0369 C221.43,249.9069 221.43,267.6369 221.43,285.4669" fill="none" id="INPUT-to-PRE" style="stroke:#181818;stroke-width:1;"/><polygon fill="#181818" points="221.43,291.4669,225.43,282.4669,221.43,286.4669,217.43,282.4669,221.43,291.4669" style="stroke:#181818;stroke-width:1;"/></g><!--link PRE to EDATA--><g class="link" data-entity-1="ent0004" data-entity-2="ent0005" data-link-type="dependency" data-source-line="28" id="lnk16"><path d="M194.53,344.6269 C175.79,362.4969 155.2424,382.0864 136.5324,399.9264" fill="none" id="PRE-to-EDATA" style="stroke:#181818;stroke-width:1;"/><polygon fill="#181818" points="132.19,404.0669,141.4639,400.7511,135.8087,400.6165,135.9433,394.9612,132.19,404.0669" style="stroke:#181818;stroke-width:1;"/></g><!--link EDATA to EMODEL--><g class="link" data-entity-1="ent0005" data-entity-2="ent0006" data-link-type="dependency" data-source-line="29" id="lnk17"><path d="M108.21,457.2269 C110.15,475.0969 112.0847,492.8517 114.0147,510.6917" fill="none" id="EDATA-to-EMODEL" style="stroke:#181818;stroke-width:1;"/><polygon fill="#181818" points="114.66,516.6569,117.6688,507.2789,114.1222,511.6859,109.7152,508.1393,114.66,516.6569" style="stroke:#181818;stroke-width:1;"/></g><!--link EMODEL to EINFER--><g class="link" data-entity-1="ent0006" data-entity-2="ent0007" data-link-type="dependency" data-source-line="30" id="lnk18"><path d="M122.76,569.8169 C126.48,587.6869 130.1877,605.5427 133.8977,623.3727" fill="none" id="EMODEL-to-EINFER" style="stroke:#181818;stroke-width:1;"/><polygon fill="#181818" points="135.12,629.2469,137.2027,619.6207,134.1014,624.3517,129.3705,621.2505,135.12,629.2469" style="stroke:#181818;stroke-width:1;"/></g><!--link PRE to SDATA--><g class="link" data-entity-1="ent0004" data-entity-2="ent0008" data-link-type="dependency" data-source-line="32" id="lnk19"><path d="M248.57,344.6269 C267.47,362.4969 288.21,382.1049 307.08,399.9449" fill="none" id="PRE-to-SDATA" style="stroke:#181818;stroke-width:1;"/><polygon fill="#181818" points="311.44,404.0669,307.648,394.9773,307.8067,400.6319,302.1521,400.7905,311.44,404.0669" style="stroke:#181818;stroke-width:1;"/></g><!--link SDATA to SMODEL--><g class="link" data-entity-1="ent0008" data-entity-2="ent0009" data-link-type="dependency" data-source-line="33" id="lnk20"><path d="M337.73,457.2269 C337.25,475.0969 336.7747,492.8191 336.2847,510.6591" fill="none" id="SDATA-to-SMODEL" style="stroke:#181818;stroke-width:1;"/><polygon fill="#181818" points="336.12,516.6569,340.3656,507.7701,336.2573,511.6588,332.3686,507.5504,336.12,516.6569" style="stroke:#181818;stroke-width:1;"/></g><!--link SMODEL to SINFER--><g class="link" data-entity-1="ent0009" data-entity-2="ent0010" data-link-type="dependency" data-source-line="34" id="lnk21"><path d="M334.73,569.8169 C334.17,590.4969 333.5618,613.0191 333.0718,631.1791" fill="none" id="SMODEL-to-SINFER" style="stroke:#181818;stroke-width:1;"/><polygon fill="#181818" points="332.91,637.1769,337.1513,628.288,333.0449,632.1787,329.1542,628.0723,332.91,637.1769" style="stroke:#181818;stroke-width:1;"/></g><!--link EINFER to FUSION--><g class="link" data-entity-1="ent0007" data-entity-2="ent0011" data-link-type="dependency" data-source-line="36" id="lnk22"><path d="M163.66,682.3469 C180.44,700.8369 198.6465,720.8949 213.4565,737.2049" fill="none" id="EINFER-to-FUSION" style="stroke:#181818;stroke-width:1;"/><polygon fill="#181818" points="217.49,741.6469,214.4011,732.2949,214.1288,737.9452,208.4785,737.6729,217.49,741.6469" style="stroke:#181818;stroke-width:1;"/></g><!--link SINFER to FUSION--><g class="link" data-entity-1="ent0010" data-entity-2="ent0011" data-link-type="dependency" data-source-line="37" id="lnk23"><path d="M315.64,674.1369 C297.43,692.9769 272.7088,718.5617 254.4788,737.4317" fill="none" id="SINFER-to-FUSION" style="stroke:#181818;stroke-width:1;"/><polygon fill="#181818" points="250.31,741.7469,259.44,738.0533,253.784,738.1509,253.6865,732.4949,250.31,741.7469" style="stroke:#181818;stroke-width:1;"/></g><!--link FUSION to OUTPUT--><g class="link" data-entity-1="ent0011" data-entity-2="ent0012" data-link-type="dependency" data-source-line="39" id="lnk24"><path d="M233.43,778.5869 C233.43,794.9169 233.43,813.5469 233.43,832.1069" fill="none" id="FUSION-to-OUTPUT" style="stroke:#181818;stroke-width:1;"/><polygon fill="#181818" points="233.43,838.1069,237.43,829.1069,233.43,833.1069,229.43,829.1069,233.43,838.1069" style="stroke:#181818;stroke-width:1;"/></g><!--link OUTPUT to FLASK--><g class="link" data-entity-1="ent0012" data-entity-2="ent0013" data-link-type="dependency" data-source-line="40" id="lnk25"><path d="M233.43,891.2369 C233.43,909.7269 233.43,928.2269 233.43,944.5469" fill="none" id="OUTPUT-to-FLASK" style="stroke:#181818;stroke-width:1;"/><polygon fill="#181818" points="233.43,950.5469,237.43,941.5469,233.43,945.5469,229.43,941.5469,233.43,950.5469" style="stroke:#181818;stroke-width:1;"/></g><?plantuml-src VL91Ri8m4Bpd5QiUgbPLlb0fAa55JG3LSEEoE4jmSMna6m5zVHqxeQ6WNcnvFRCpuxKJJXAKf1nAU2UKRWkbLi9f8rGDx6mTDP12PlXMEEBkO2X9x4weFHfiO8ryLnjzKDMRbjh0iKKDxhbkzbhvzioTlP3n7L3LSWYnMwpqiLNReBI-EtAl3WzCS-5DbLG9XBb4jz6ciG-05bWvJv9Bhp_GDwsS5roffmMT7Bn0tkWlOPy3SpATBnT3Qi1CVMUKuXkTq0eULofGO4Jj5gk1FV_ChtGBN9EagbK8p14wj1Ia3GhLPcfBKJeVPOjioEvPfQv8hbHFYU1oDigBU-Y9sf0XnSch56XgIXb73nW8JQRZ_FEkKOQ6est-Dyh-6krPzuoo6wCz-c8qucvDZG_sAX0KU2OJqECbcyocGt2OwicbsH6DZtxzOvce5Sh0d2qNxOIlT2JQ7MJxlHGyJdWWL6Ji8qdyXu8qVUs-HrZ3EGpSB-4G1nZMU8xHunOhNSYU4L-INHZTOx5VHlyiaHbANNPsKqdY7afTpBX5K9la1m00?></g></svg>